<?xml version="1.0"?>
<svg xmlns="http://www.w3.org/2000/svg" id="Layer_1" data-name="Layer 1" viewBox="0 0 512 512" width="512" height="512"><path d="M382.347,295h.35a6,6,0,0,0,0-12h-.35a6,6,0,0,0,0,12Z"/><path d="M218.633,295H359.628a6,6,0,0,0,0-12H218.633a6,6,0,0,0,0,12Z"/><path d="M129.3,295h66.436a6,6,0,1,0,0-12H129.3a6,6,0,0,0,0,12Z"/><path d="M110.881,33.5A5.971,5.971,0,0,0,114,32.621a196.672,196.672,0,0,1,19.64-10.48A6,6,0,0,0,128.6,11.249a208.731,208.731,0,0,0-20.843,11.123A6,6,0,0,0,110.881,33.5Z"/><path d="M34.975,109.671a6,6,0,0,0,8.131-2.426A196.259,196.259,0,0,1,91.08,48.932a6,6,0,0,0-7.639-9.255A208.208,208.208,0,0,0,32.549,101.54,6,6,0,0,0,34.975,109.671Z"/><path d="M501,489H491V320.965c0-.06-.007-.118-.009-.177s.009-.118.009-.178V256.7a5.73,5.73,0,0,0-5.978-5.7H462.157a210.826,210.826,0,0,0,2.234-30.521c0-114.907-93.484-208.391-208.391-208.391A208.377,208.377,0,0,0,47.609,220.479,210.836,210.836,0,0,0,49.843,251H26.978A5.73,5.73,0,0,0,21,256.7V320.61c0,.06.007.118.009.178s-.009.117-.009.177V489H11a6,6,0,0,0,0,12H501a6,6,0,0,0,0-12ZM452.391,220.479A198.673,198.673,0,0,1,450.031,251H376c1-10.007,1.511-20.243,1.511-30.521a307.922,307.922,0,0,0-2.106-36.236,323.79,323.79,0,0,0,64.146-33.606A195.416,195.416,0,0,1,452.391,220.479Zm-17.562-81.147a312.01,312.01,0,0,1-61.141,32.687c-4.7-28.946-13.658-55.481-26.4-78.727a204.481,204.481,0,0,0,35.876-22.345A197.483,197.483,0,0,1,434.829,139.332ZM373.521,63.225a193.486,193.486,0,0,1-32.244,19.8A189.391,189.391,0,0,0,287.94,26.7,195.468,195.468,0,0,1,373.521,63.225ZM262,25.219c27.924,14.165,50.979,35.688,68.188,62.76A194.405,194.405,0,0,1,262,102.264Zm0,89.046a208.555,208.555,0,0,0,74.293-16c12.684,22.885,21.5,49.222,25.921,78.071A316.491,316.491,0,0,1,262,194.308Zm0,92.043a328.6,328.6,0,0,0,101.8-17.816,296.957,296.957,0,0,1,1.7,31.987A295.826,295.826,0,0,1,363.938,251H262ZM149.783,176.354c4.413-28.78,13.19-55.061,25.823-77.909A211.232,211.232,0,0,0,250,114.266V194.3A320.608,320.608,0,0,1,149.783,176.354ZM250,206.3V251H148.062a299.447,299.447,0,0,1,.135-62.495A332.783,332.783,0,0,0,250,206.3ZM181.788,88.017C199,60.927,222.063,39.391,250,25.219v77.042A199.266,199.266,0,0,1,181.788,88.017Zm42.223-61.285a189.41,189.41,0,0,0-53.362,56.41A194.538,194.538,0,0,1,137.983,63.5,196.751,196.751,0,0,1,224.011,26.732ZM128.347,71.25a206.276,206.276,0,0,0,36.235,22.281c-12.681,23.2-21.6,49.674-26.279,78.543a316.4,316.4,0,0,1-61.331-32.428A196.328,196.328,0,0,1,128.347,71.25Zm-56.07,79.7a328.224,328.224,0,0,0,64.317,33.337,308.243,308.243,0,0,0-2.1,36.191c0,10.278.513,20.514,1.511,30.521H61.969a198.683,198.683,0,0,1-2.36-30.521A196.444,196.444,0,0,1,72.277,150.951ZM64,489H33V327H64Zm89,0H76V327h77Zm31,0H165V327h19Zm66-68H236.448a6,6,0,1,0,0,12H250v56H196V359h54Zm66,68H262V433h13.552a6,6,0,0,0,0-12H262V359h54Zm0-142H196V327H316Zm31,142H328V327h19Zm89,0H359V327h77Zm43,0H448V327h31Zm0-174H33V263H479Z"/></svg>
