<svg height="511pt" viewBox="1 -40 511.999 511" width="511pt" xmlns="http://www.w3.org/2000/svg"><path d="m87.660156 361.226562c-4.140625 0-7.5 3.355469-7.5 7.5 0 9.125-7.421875 16.546876-16.546875 16.546876s-16.546875-7.421876-16.546875-16.546876 7.421875-16.550781 16.546875-16.550781c4.140625 0 7.5-3.355469 7.5-7.5 0-4.140625-3.359375-7.5-7.5-7.5-17.394531 0-31.546875 14.152344-31.546875 31.550781 0 17.394532 14.152344 31.546876 31.546875 31.546876s31.546875-14.152344 31.546875-31.546876c0-4.144531-3.355468-7.5-7.5-7.5zm0 0"/><path d="m247.984375 361.226562c-4.140625 0-7.5 3.355469-7.5 7.5 0 9.125-7.421875 16.546876-16.546875 16.546876s-16.550781-7.421876-16.550781-16.546876 7.425781-16.550781 16.550781-16.550781c4.140625 0 7.5-3.355469 7.5-7.5 0-4.140625-3.359375-7.5-7.5-7.5-17.398438 0-31.550781 14.152344-31.550781 31.550781 0 17.394532 14.152343 31.546876 31.550781 31.546876 17.394531 0 31.546875-14.152344 31.546875-31.546876 0-4.144531-3.359375-7.5-7.5-7.5zm0 0"/><path d="m408.308594 361.226562c-4.144532 0-7.5 3.355469-7.5 7.5 0 9.125-7.425782 16.546876-16.550782 16.546876s-16.546874-7.421876-16.546874-16.546876 7.421874-16.550781 16.546874-16.550781c4.144532 0 7.5-3.355469 7.5-7.5 0-4.140625-3.355468-7.5-7.5-7.5-17.394531 0-31.546874 14.152344-31.546874 31.550781 0 17.394532 14.152343 31.546876 31.546874 31.546876 17.398438 0 31.550782-14.152344 31.550782-31.546876 0-4.144531-3.359375-7.5-7.5-7.5zm0 0"/><path d="m499.351562 221.304688-165.296874-86.242188c-7.90625-4.125-16.800782-6.304688-25.71875-6.304688h-60.867188v-18.457031c15.65625-1.882812 30.066406-5.632812 41.921875-11.019531 19.488281-8.859375 30.222656-21.347656 30.222656-35.167969 0-4.144531-3.359375-7.5-7.5-7.5h-80.675781v-48.613281c0-4.140625-3.359375-7.5-7.5-7.5-4.144531 0-7.5 3.359375-7.5 7.5v48.613281h-80.679688c-4.140624 0-7.5 3.355469-7.5 7.5 0 13.820313 10.734376 26.308594 30.222657 35.167969 11.855469 5.386719 26.269531 9.136719 41.921875 11.019531v18.457031h-48.617188c-4.140625 0-7.5 3.359376-7.5 7.5 0 4.140626 3.359375 7.5 7.5 7.5h156.550782c6.511718 0 13.007812 1.589844 18.78125 4.605469l23.878906 12.457031h-22.851563c-12.976562 0-23.53125 10.558594-23.53125 23.53125v32.066407c0 12.976562 10.558594 23.53125 23.53125 23.53125h168.558594c.191406.714843.296875 1.457031.296875 2.21875v30.878906h-24.566406c-4.140625 0-7.5 3.359375-7.5 7.5 0 4.144531 3.359375 7.5 7.5 7.5h13.960937l-47.734375 47.734375c-11.167968-18.371094-31.375-30.667969-54.402344-30.667969-23.597656 0-44.222656 12.925781-55.203124 32.0625h-49.914063c-10.980469-19.136719-31.605469-32.0625-55.203125-32.0625-23.601562 0-44.226562 12.925781-55.203125 32.0625h-49.917969c-10.976562-19.136719-31.601562-32.0625-55.203125-32.0625-8.222656 0-16.082031 1.585938-23.304687 4.4375l-17.203125-21.503906h417.269531c4.140625 0 7.5-3.355469 7.5-7.5 0-4.140625-3.359375-7.5-7.5-7.5h-393.3125v-40.597656c0-12.976563-10.554688-23.53125-23.53125-23.53125h-8.53125v-56.628907c0-4.703124 3.828125-8.53125 8.53125-8.53125h96.191406c4.144532 0 7.5-3.359374 7.5-7.5 0-4.140624-3.355468-7.5-7.5-7.5h-8.53125v-120.757812c0-4.140625-3.355468-7.5-7.5-7.5-4.140625 0-7.5 3.359375-7.5 7.5v61.023438l-25.171875 25.171874c-4.445312 4.445313-6.890625 10.351563-6.890625 16.640626v17.921874h-40.597656c-12.972656 0-23.53125 10.558594-23.53125 23.53125v122.632813c0 5.324219 1.832031 10.546875 5.15625 14.703125l21.753906 27.191406c-16.265625 11.535156-26.910156 30.496094-26.910156 51.910156 0 35.074219 28.535156 63.613282 63.613281 63.613282 35.074219 0 63.613281-28.539063 63.613281-63.613282 0-5.726562-.773437-11.269531-2.199218-16.550781h37.492187c-1.425781 5.28125-2.199219 10.824219-2.199219 16.550781 0 35.074219 28.539063 63.613282 63.613282 63.613282 35.078125 0 63.613281-28.539063 63.613281-63.613282 0-5.726562-.769531-11.269531-2.195313-16.550781h37.488282c-1.421875 5.28125-2.195313 10.824219-2.195313 16.550781 0 35.074219 28.535157 63.613282 63.613281 63.613282 35.074219 0 63.613282-28.539063 63.613282-63.613282 0-6.347656-.945313-12.472656-2.683594-18.261718l11.820312-11.820313c1.011719 12.050781 11.136719 21.546875 23.441407 21.546875h16.035156c4.140625 0 7.5-3.355468 7.5-7.5v-32.0625c0-4.144531-3.359375-7.5-7.5-7.5h-13.960937l22.582031-22.582031c4.445312-4.445313 6.894531-10.355469 6.894531-16.640625v-31.738281c0-8.796875-4.847656-16.792969-12.648438-20.863281zm-353.59375-149.691407h156.355469c-8.539062 12.992188-38.285156 25.078125-78.179687 25.078125-39.890625 0-69.636719-12.085937-78.175782-25.078125zm86.710938 57.144531h-17.066406v-17.25c2.824218.117188 5.667968.183594 8.535156.183594 2.863281 0 5.707031-.066406 8.53125-.183594zm112.222656 96.191407h-16.546875c-4.703125 0-8.53125-3.828125-8.53125-8.53125v-32.0625c0-4.707031 3.828125-8.53125 8.53125-8.53125h16.546875zm15 0v-49.128907h20.054688l94.164062 49.128907zm-280.5625-114.117188c0-2.277343.886719-4.417969 2.5-6.03125l14.5625-14.566406v38.523437h-17.0625zm-64.128906 113.085938h8.53125c4.707031 0 8.53125 3.828125 8.53125 8.53125v40.597656h-17.0625zm48.613281 193.417969c-26.804687 0-48.613281-21.804688-48.613281-48.609376 0-26.808593 21.808594-48.613281 48.613281-48.613281 26.804688 0 48.613281 21.808594 48.613281 48.613281 0 26.804688-21.808593 48.609376-48.613281 48.609376zm160.324219 0c-26.804688 0-48.613281-21.804688-48.613281-48.613282 0-26.804687 21.808593-48.609375 48.613281-48.609375s48.613281 21.804688 48.613281 48.609375c-.003906 26.808594-21.808593 48.613282-48.613281 48.613282zm160.320312 0c-26.847656 0-48.613281-21.761719-48.613281-48.613282 0-26.847656 21.765625-48.609375 48.613281-48.609375 26.847657 0 48.613282 21.761719 48.613282 48.609375 0 26.851563-21.765625 48.613282-48.613282 48.613282zm104.726563-89.207032v17.0625h-8.53125c-4.707031 0-8.53125-3.828125-8.53125-8.53125 0-4.707031 3.824219-8.53125 8.53125-8.53125zm0 0"/><path d="m272.03125 207.886719c8.558594 0 15.515625-6.960938 15.515625-15.515625v-16.03125c0-8.558594-6.957031-15.515625-15.515625-15.515625h-64.128906c-8.554688 0-15.515625 6.957031-15.515625 15.515625v16.03125c0 8.554687 6.960937 15.515625 15.515625 15.515625zm-24.5625-32.066407h24.5625c.285156 0 .515625.230469.515625.515626v16.035156c0 .285156-.230469.515625-.515625.515625h-24.5625zm-40.082031 16.550782v-16.03125c0-.285156.230469-.515625.515625-.515625h24.566406v17.0625h-24.566406c-.285156 0-.515625-.230469-.515625-.515625zm0 0"/></svg>