<svg id="Layer_1" height="512" viewBox="0 0 512 512" width="512" xmlns="http://www.w3.org/2000/svg" data-name="Layer 1"><path d="m341.22 44.73a159.9 159.9 0 0 0 -155.23 197.82l44.29 75.56c0 .47-.01.93-.03 1.39h.03a159.781 159.781 0 1 0 110.94-274.77zm-119.84 152.24a.445.445 0 1 1 .44-.44.437.437 0 0 1 -.44.44z" fill="#e5f5fd"/><path d="m260.28 319.5h-.03c.02-.46.03-.92.03-1.39l-44.29-75.56a159.915 159.915 0 0 1 140.229-197.114c-4.939-.46-9.94-.706-15-.706a159.9 159.9 0 0 0 -155.229 197.82l44.29 75.56c0 .47-.01.93-.03 1.39h.03a159.215 159.215 0 0 0 110.94 44.8c5.054 0 10.051-.246 14.985-.7a159.2 159.2 0 0 1 -95.925-44.1z" fill="#a6b7d0"/><path d="m182.24 284.67-9.89-28.03-.3.11-86.24 30.43 19.23 54.5 54.2-19.13a34.259 34.259 0 0 1 -.28-4.44 35.66 35.66 0 0 1 23.28-33.44z" fill="#72bcef"/><path d="m89.44 297.46 11.97 33.94-58.28 20.57-.31.11-11.97-33.94.3-.11z" fill="#fadf4a"/><path d="m28.52 311.54-17.52 6.18 16.64 47.14 17.51-6.18z" fill="#50a6ea"/><path d="m463.25 247.54a28.744 28.744 0 0 0 .1 25.77 28.848 28.848 0 0 0 -25.8.03 28.744 28.744 0 0 0 -.1-25.77 28.848 28.848 0 0 0 25.8-.03z" fill="#b0b5ca"/><path d="m321.69 318.14a1.775 1.775 0 0 0 3.55 0" fill="#00aeef"/><path d="m364.9 77.58a28.842 28.842 0 0 0 6.82-.82 28.781 28.781 0 0 0 -6.51 18.23 28.448 28.448 0 0 0 .84 6.9 28.9 28.9 0 0 0 -25.16-5.74 28.77 28.77 0 0 0 5.68-25.14 28.884 28.884 0 0 0 18.33 6.57z" fill="#b0b5ca"/><path d="m476.14 204.51a5.33 5.33 0 1 1 -5.32 5.33 5.328 5.328 0 0 1 5.32-5.33z" fill="#b0b5ca"/><path d="m383.83 231.63a52.526 52.526 0 0 1 -8.34 28.46l-27.69-78.46a52.713 52.713 0 0 1 36.03 50z" fill="#6d7486"/><path d="m344.81 173.16-32.63 11.51 33.43 94.73 32.63-11.52z" fill="#72bcef"/><path d="m316.37 196.54-146.93 51.85 12.8 36.28a35.693 35.693 0 0 1 46.38 22.67l112.8-39.81z" fill="#fadf4a"/><path d="m228.62 307.34a35.428 35.428 0 0 1 1.66 10.77c0 .47-.01.93-.03 1.39a35.657 35.657 0 0 1 -71.01 3.05 34.259 34.259 0 0 1 -.28-4.44 35.665 35.665 0 0 1 69.66-10.77z" fill="#ed6337"/><path d="m194.62 303.08a15.035 15.035 0 1 1 -15.04 15.03 15.031 15.031 0 0 1 15.04-15.03z" fill="#6d7486"/><path d="m250.94 196.53a.444.444 0 0 0 .44.44.445.445 0 0 0 0-.89.446.446 0 0 0 -.44.45z" fill="#ccd3df"/><g fill="#284268"><path d="m341.218 38.732c-91.413 0-165.783 74.37-165.783 165.783a166.805 166.805 0 0 0 3.53 34.152l-11.52 4.066a6 6 0 0 0 -3.661 7.655l.915 2.592-80.885 28.546a6 6 0 0 0 -3.661 7.655l1.629 4.616-47.275 16.684-.332-.942a6 6 0 0 0 -7.655-3.661l-17.52 6.182a6 6 0 0 0 -3.661 7.654l16.637 47.144a6 6 0 0 0 7.656 3.662l17.516-6.182a6 6 0 0 0 3.661-7.654l-.332-.943 47.276-16.684 1.629 4.615a5.993 5.993 0 0 0 7.655 3.661l47.792-16.866a41.832 41.832 0 0 0 17.386 22.74l-60.636 111.193a6 6 0 1 0 10.535 5.745l61.07-111.979a41.442 41.442 0 0 0 22.871 0l61.068 111.979a6 6 0 1 0 10.535-5.745l-60.637-111.19a41.865 41.865 0 0 0 17.168-22.089 164.857 164.857 0 0 0 107.029 39.179c91.413 0 165.782-74.373 165.782-165.785s-74.369-165.783-165.782-165.783zm-309.918 318.475-12.646-35.828 6.2-2.189 12.646 35.829zm15.187-12.782-7.987-22.625 47.275-16.684 7.986 22.627zm106.482-26.025-44.269 15.621-15.233-43.176 75.226-26.545 6.072 17.2a41.69 41.69 0 0 0 -21.8 36.613c-.003.096.004.187.004.287zm41.65 29.372a29.486 29.486 0 0 1 -11.823-2.466c-.046-.02-.091-.043-.138-.063a29.637 29.637 0 1 1 11.961 2.529zm37.394-47.991a41.639 41.639 0 0 0 -45.986-22.427l-8.929-25.3 135.602-47.86 21.061 59.676zm138.569-35.56-21.313 7.522-29.437-83.407 21.314-7.523zm-12.152-70.495a46.738 46.738 0 0 1 17.735 50.255zm-17.212 164.574a152.982 152.982 0 0 1 -104.969-41.408 42.011 42.011 0 0 0 -.557-5.682l102.067-36.021 2.19 6.208a6 6 0 0 0 7.655 3.661l32.63-11.516a6 6 0 0 0 3.662-7.655l-1.81-5.126a58.7 58.7 0 0 0 -29.572-83.8l-2.048-5.8a6 6 0 0 0 -7.655-3.661l-32.63 11.516a6 6 0 0 0 -3.661 7.654l2.19 6.208-118.31 41.754a154.891 154.891 0 0 1 -2.965-30.117c0-84.8 68.987-153.783 153.783-153.783s153.782 68.987 153.782 153.783-68.986 153.785-153.782 153.785z"/><path d="m376.8 73.564a6 6 0 0 0 -6.5-2.635 22.993 22.993 0 0 1 -19.927-4.556 6 6 0 0 0 -9.633 6.073 22.887 22.887 0 0 1 -4.488 19.9 6 6 0 0 0 6.06 9.634 22.994 22.994 0 0 1 19.927 4.556 6 6 0 0 0 9.632-6.074 22.887 22.887 0 0 1 4.488-19.9 6 6 0 0 0 .441-6.998zm-17.385 17.806a35.206 35.206 0 0 0 -8.025-1.829 35.141 35.141 0 0 0 1.811-8 35.247 35.247 0 0 0 8.025 1.829 35.088 35.088 0 0 0 -1.811 8z"/><path d="m433.194 243.342a6 6 0 0 0 -1.1 6.934 22.893 22.893 0 0 1 .084 20.4 6 6 0 0 0 8.064 8.031 22.991 22.991 0 0 1 20.441-.024 6 6 0 0 0 8.026-8.078 22.889 22.889 0 0 1 -.084-20.4 6 6 0 0 0 -8.064-8.031 22.987 22.987 0 0 1 -20.442.024 6 6 0 0 0 -6.925 1.144zm21.31 12.986a35.084 35.084 0 0 0 .028 8.206 35.179 35.179 0 0 0 -8.23.015 35.138 35.138 0 0 0 -.03-8.206 35.415 35.415 0 0 0 8.228-.015z"/><path d="m225.818 163.007a10.439 10.439 0 1 0 10.439 10.439 10.45 10.45 0 0 0 -10.439-10.439z"/><path d="m476.145 221.167a11.326 11.326 0 1 0 -11.327-11.326 11.339 11.339 0 0 0 11.327 11.326z"/><path d="m398.7 148.591a11.326 11.326 0 1 0 -11.326 11.342 11.347 11.347 0 0 0 11.326-11.342z"/><circle cx="323.464" cy="318.138" r="7.775"/><path d="m221.381 190.082a6.444 6.444 0 1 0 6.443 6.443 6.45 6.45 0 0 0 -6.443-6.443z"/><path d="m413.119 155.478a6.888 6.888 0 1 0 -6.888-6.887 6.9 6.9 0 0 0 6.888 6.887z"/><path d="m316.034 110.757a6 6 0 1 0 -6.935-9.792l-29.618 20.978a6 6 0 1 0 6.936 9.792z"/><path d="m323.409 104.185a5.968 5.968 0 0 0 3.475-1.113l.237-.169a6 6 0 1 0 -6.959-9.775l-.237.169a6 6 0 0 0 3.484 10.888z"/><path d="m288.535 134.736-.03.021a6.058 6.058 0 1 0 .03-.021z"/><path d="m329.233 105.909-29.885 21.169a6 6 0 1 0 6.935 9.792l29.886-21.17a6 6 0 1 0 -6.936-9.792z"/><path d="m398.455 290.726a6 6 0 0 0 -8.364-1.428l-15.628 11.07a6 6 0 1 0 6.935 9.792l15.628-11.07a6 6 0 0 0 1.429-8.364z"/><path d="m404.732 292.283a5.967 5.967 0 0 0 3.463-1.1l2.822-2a6 6 0 0 0 -6.936-9.793l-2.821 2a6 6 0 0 0 3.472 10.9z"/><path d="m398.769 302.357-4.44 3.145a6 6 0 1 0 6.936 9.792l4.439-3.145a6 6 0 1 0 -6.935-9.792z"/><path d="m424.215 284.333-11.067 7.838a6 6 0 1 0 6.938 9.792l11.064-7.838a6 6 0 1 0 -6.935-9.792z"/><path d="m297.442 218.538-21.111 7.45a6 6 0 1 0 3.994 11.317l21.112-7.451a6 6 0 1 0 -4-11.316z"/><path d="m260.015 231.747-47.944 16.92a6 6 0 1 0 3.994 11.316l47.944-16.92a6 6 0 1 0 -3.994-11.316z"/><path d="m194.619 297.078a21.036 21.036 0 1 0 21.035 21.036 21.06 21.06 0 0 0 -21.035-21.036zm0 30.071a9.036 9.036 0 1 1 9.035-9.035 9.046 9.046 0 0 1 -9.035 9.035z"/></g></svg>